<svg width="42" height="42" viewBox="0 0 42 42" fill="none" xmlns="http://www.w3.org/2000/svg">
<path d="M21 41C32.0457 41 41 32.0457 41 21C41 9.9543 32.0457 1 21 1C9.9543 1 1 9.9543 1 21C1 32.0457 9.9543 41 21 41Z" stroke="url(#paint0_linear_545_2815)" stroke-width="2" stroke-miterlimit="10"/>
<path d="M21.5 12V23.6667" stroke="url(#paint1_linear_545_2815)" stroke-width="2" stroke-linecap="round" stroke-linejoin="round"/>
<path d="M21.5 30.6667C22.3284 30.6667 23 29.9952 23 29.1667C23 28.3383 22.3284 27.6667 21.5 27.6667C20.6716 27.6667 20 28.3383 20 29.1667C20 29.9952 20.6716 30.6667 21.5 30.6667Z" fill="url(#paint2_linear_545_2815)"/>
<defs>
<linearGradient id="paint0_linear_545_2815" x1="41.5" y1="1.5" x2="-3" y2="41" gradientUnits="userSpaceOnUse">
<stop stop-color="#EE7733"/>
<stop offset="1" stop-color="#7711BB"/>
</linearGradient>
<linearGradient id="paint1_linear_545_2815" x1="22.5125" y1="12.1458" x2="20.5349" y2="12.2963" gradientUnits="userSpaceOnUse">
<stop stop-color="#EE7733"/>
<stop offset="1" stop-color="#7711BB"/>
</linearGradient>
<linearGradient id="paint2_linear_545_2815" x1="23.0375" y1="27.7042" x2="19.7" y2="30.6667" gradientUnits="userSpaceOnUse">
<stop stop-color="#EE7733"/>
<stop offset="1" stop-color="#7711BB"/>
</linearGradient>
</defs>
</svg>
