<svg width="10" height="16" viewBox="0 0 10 16" fill="none" xmlns="http://www.w3.org/2000/svg">
<g clip-path="url(#clip0_523_2732)">
<path d="M0.293848 4.70615C-0.0967767 4.31553 -0.0967767 3.68115 0.293848 3.29053C0.684473 2.8999 1.31885 2.8999 1.70947 3.29053L5.0001 6.58428L8.29385 3.29365C8.68447 2.90303 9.31885 2.90303 9.70947 3.29365C10.1001 3.68428 10.1001 4.31865 9.70947 4.70928L6.41572 7.9999L9.70635 11.2937C10.097 11.6843 10.097 12.3187 9.70635 12.7093C9.31572 13.0999 8.68135 13.0999 8.29072 12.7093L5.0001 9.41553L1.70635 12.7062C1.31572 13.0968 0.681348 13.0968 0.290723 12.7062C-0.0999019 12.3155 -0.0999019 11.6812 0.290723 11.2905L3.58447 7.9999L0.293848 4.70615Z" fill="#F5F2F0"/>
</g>
<defs>
<clipPath id="clip0_523_2732">
<rect width="10" height="16" fill="white" transform="matrix(-1 0 0 1 10 0)"/>
</clipPath>
</defs>
</svg>
