<svg width="40" height="40" viewBox="0 0 40 40" fill="none" xmlns="http://www.w3.org/2000/svg">
<circle cx="20" cy="20" r="19.5" stroke="url(#paint0_linear_120_1760)"/>
<path d="M10.5967 14.0781L10.6003 14.0703C10.7673 13.7174 11.1127 13.5 11.4845 13.5H27.5176C27.893 13.5 28.2382 13.7199 28.4035 14.0776L28.4047 14.0802C28.5709 14.4345 28.5186 14.8497 28.2569 15.1516L28.2501 15.1595L28.2436 15.1676L21.4853 23.6515L21.3763 23.7882V23.9631V28.7862C21.3763 29.0632 21.2244 29.3085 20.9935 29.4254L20.9918 29.4263C20.7618 29.5439 20.4868 29.5197 20.281 29.3614L20.2804 29.3609L17.9051 27.5394L17.9051 27.5394L17.9027 27.5376C17.7314 27.4078 17.6258 27.1971 17.6258 26.9647V23.9631V23.7876L17.5162 23.6506L10.726 15.1667C10.726 15.1667 10.7259 15.1667 10.7259 15.1667C10.482 14.8619 10.4303 14.4372 10.5967 14.0781Z" stroke="url(#paint1_linear_120_1760)"/>
<defs>
<linearGradient id="paint0_linear_120_1760" x1="40.5" y1="0.499999" x2="-4" y2="40" gradientUnits="userSpaceOnUse">
<stop stop-color="#EE7733"/>
<stop offset="1" stop-color="#7711BB"/>
</linearGradient>
<linearGradient id="paint1_linear_120_1760" x1="32.5" y1="5" x2="6" y2="34" gradientUnits="userSpaceOnUse">
<stop stop-color="#EE7733"/>
<stop offset="1" stop-color="#7711BB"/>
</linearGradient>
</defs>
</svg>
